# xmcd CD database file
#
# Track frame offsets:
#	150
#	17873
#	35669
#	46408
#	60260
#
# Disc length: 1122 seconds
#
# Revision: 0
# Processed by: cddbd v1.4PL0 Copyright (c) Steve Scherf et al.
# Submitted via: CDex 1.40Release
#
DISCID=39046005
DTITLE=Dawn Kinnard - Dawn Kinnard EP
DYEAR=2003
DGENRE=Country
TTITLE0=Blue Rain
TTITLE1=Mexico
TTITLE2=You Oughta Know
TTITLE3=Red Neon Light (live)
TTITLE4=The Road, It Calls
EXTD=YEAR: 2003 ID3G: 2
EXTT0=
EXTT1=
EXTT2=
EXTT3=
EXTT4=
PLAYORDER=
